# xmcd
#
# Track frame offsets: 
#        150
#        16672
#        36715
#        58745
#        77900
#        90727
#        113835
#        144697
#        159217
#        176150
#        201152
#
# Disc length: 2798 seconds
#
# Revision: 0
# Processed by: cddbd v1.5.1PL0 Copyright (c) Steve Scherf et al.
# Submitted via: ExactAudioCopy v0.95a5
#
DISCID=940aec0b
DTITLE=Ronnie Peterson - Pass It On
DYEAR=1998
DGENRE=Blues
TTITLE0=Stop Breaking Down
TTITLE1=Snatch It Back And Hold It
TTITLE2=Can't Wait To See My Baby's Face
TTITLE3=Early In The Morning
TTITLE4=Train Done Gone
TTITLE5=Pass It On
TTITLE6=Don't Do This To Me
TTITLE7=Feel So Bad
TTITLE8=Tell Me
TTITLE9=Money Is The Name Of The Game
TTITLE10=Who's That Knockin' At Your Door?
EXTD=
EXTT0=
EXTT1=
EXTT2=
EXTT3=
EXTT4=
EXTT5=
EXTT6=
EXTT7=
EXTT8=
EXTT9=
EXTT10=
PLAYORDER=
